<svg width="300" height="300" viewBox="0 0 300 300" fill="none" xmlns="http://www.w3.org/2000/svg">
<rect width="300" height="300" fill="black"/>
<path d="M71.7083 150.718C74.314 158.696 76.8768 166.481 79.6089 174.78C86.1258 153.228 92.4627 132.251 98.8166 111.278C99.7956 108.046 102.364 106.203 105.776 106.183C109.338 106.162 111.458 107.859 112.614 111.669C118.895 132.362 125.174 153.055 131.461 173.746C131.53 173.974 131.7 174.178 132.071 174.827C133.67 169.934 135.153 165.39 136.639 160.846C142.255 143.674 147.901 126.509 153.452 109.32C154.184 107.053 155.582 105.614 158.164 105.198C162.946 104.426 165.798 106.509 165.184 110.797C164.722 114.024 163.481 117.18 162.409 120.321C154.611 143.177 146.766 166.021 138.941 188.87C137.96 191.734 136.292 194.037 132.599 194.403C128.766 194.784 126.073 192.828 124.919 188.909C121.43 177.062 117.975 165.207 114.509 153.354C111.864 144.309 109.227 135.263 106.574 126.22C106.422 125.703 106.157 125.211 105.728 124.194C102.362 135.497 99.1421 146.279 95.9405 157.065C92.7875 167.688 89.6616 178.317 86.505 188.939C85.509 192.291 82.8043 194.388 79.5031 194.447C76.1158 194.507 73.6503 192.663 72.4243 189.079C63.857 164.038 55.2963 138.995 46.754 113.947C46.4145 112.951 46.2043 111.909 46.0675 110.875C45.7572 108.529 46.478 106.524 49.0329 105.428C51.3719 104.425 55.2086 105.257 56.7228 107.162C57.588 108.25 58.2329 109.543 58.6572 110.825C63.0308 124.049 67.339 137.289 71.7083 150.718Z" fill="white"/>
<path d="M225.417 167.382C217.828 154.381 210.333 141.532 202.629 128.326C202.417 128.633 202.222 128.907 202.04 129.16C201.691 129.648 201.395 130.062 201.14 130.499C199.713 132.944 198.285 135.389 196.858 137.833C190.739 148.311 184.62 158.789 178.576 169.311C177.478 171.222 176.318 172.138 174.007 171.982C171.725 171.828 169.43 171.86 166.946 171.894C165.836 171.91 164.687 171.925 163.485 171.925L202.525 105L254.716 194.45H150.357C150.911 193.509 151.451 192.575 151.986 191.65C153.522 188.997 155.016 186.414 156.655 183.925C157.063 183.306 158.531 183.167 159.51 183.165C179.751 183.122 199.992 183.114 220.232 183.106C223.839 183.105 227.445 183.103 231.052 183.102C231.685 183.101 232.318 183.101 233.11 183.101C233.535 183.101 234.007 183.101 234.549 183.101L234.528 183.065C231.381 177.647 228.445 172.591 225.417 167.382Z" fill="#85C33D"/>
<path d="M225.417 167.382C217.828 154.381 210.333 141.532 202.629 128.326C202.417 128.633 202.222 128.907 202.04 129.16C201.691 129.648 201.395 130.062 201.14 130.499C199.713 132.944 198.285 135.389 196.858 137.833C190.739 148.311 184.62 158.789 178.576 169.311C177.478 171.222 176.318 172.138 174.007 171.982C171.725 171.828 169.43 171.86 166.946 171.894C165.836 171.91 164.687 171.925 163.485 171.925L202.525 105L254.716 194.45H150.357C150.911 193.509 151.451 192.575 151.986 191.65C153.522 188.997 155.016 186.414 156.655 183.925C157.063 183.306 158.531 183.167 159.51 183.165C179.751 183.122 199.992 183.114 220.232 183.106C223.839 183.105 227.445 183.103 231.052 183.102C231.685 183.101 232.318 183.101 233.11 183.101C233.535 183.101 234.007 183.101 234.549 183.101L234.528 183.065C231.381 177.647 228.445 172.591 225.417 167.382Z" stroke="#85C33D"/>
</svg>
