<svg width="282" height="35" viewBox="0 0 282 35" fill="none" xmlns="http://www.w3.org/2000/svg">
<path d="M8.58021 17.3054C9.44987 20.3254 10.3052 23.2724 11.2171 26.4139C13.3921 18.2555 15.507 10.3152 17.6277 2.37628C17.9544 1.15304 18.8118 0.455241 19.9505 0.447627C21.1394 0.439674 21.8467 1.08216 22.2327 2.52455C24.3289 10.3573 26.4245 18.1902 28.5229 26.0224C28.5459 26.1085 28.6026 26.1856 28.7264 26.4313C29.2599 24.5794 29.7551 22.8593 30.251 21.1394C32.1253 14.6391 34.0096 8.14171 35.8624 1.63533C36.1068 0.777181 36.5733 0.232529 37.4351 0.0748522C39.031 -0.217158 39.9828 0.571368 39.778 2.19438C39.6238 3.41586 39.2096 4.61055 38.8519 5.79936C36.2493 14.451 33.631 23.098 31.0193 31.747C30.6919 32.8313 30.1351 33.7028 28.9025 33.8417C27.6234 33.9857 26.7245 33.2452 26.3394 31.7621C25.1751 27.2775 24.0218 22.7901 22.8651 18.3035C21.9824 14.8797 21.1021 11.4553 20.2166 8.03233C20.166 7.83651 20.0775 7.65047 19.9344 7.26544C18.8109 11.5438 17.7363 15.6253 16.6678 19.7082C15.6155 23.7293 14.5722 27.7527 13.5187 31.7735C13.1862 33.0421 12.2835 33.8359 11.1818 33.8582C10.0512 33.8811 9.22837 33.1829 8.81917 31.8264C5.95983 22.3475 3.10267 12.868 0.251641 3.3867C0.138326 3.00986 0.0682024 2.61531 0.0225377 2.22381C-0.0810339 1.33587 0.159517 0.576828 1.01225 0.162097C1.79287 -0.217565 3.0734 0.0973766 3.57875 0.81834C3.86752 1.23032 4.08277 1.71947 4.22436 2.20501C5.68407 7.21049 7.12195 12.2223 8.58021 17.3054Z" fill="white"/>
<path d="M239.501 0.104338C242.043 0.47946 244.182 1.44082 245.831 3.37223C248.668 6.69547 249.02 12.3666 244.131 15.2633C244.01 15.3348 243.905 15.4335 243.81 15.5065C244.797 15.9975 245.803 16.3723 246.671 16.9536C249.16 18.6206 249.957 21.1053 249.91 23.9823C249.82 29.5674 245.4 33.5977 239.889 33.8012C235.768 33.9534 231.638 33.8622 227.512 33.8527C226.085 33.8495 225.304 32.9546 225.304 31.4103C225.301 24.2268 225.303 17.0432 225.303 9.85968C225.303 7.41422 225.297 4.96874 225.305 2.5233C225.31 0.885008 226.153 0.0349283 227.775 0.0392318C231.656 0.049532 235.538 0.0701978 239.501 0.104338ZM243.137 19.1432C242.129 18.8288 241.135 18.3021 240.112 18.2412C237.405 18.0801 234.685 18.1185 231.971 18.0821C231.277 18.0729 230.584 18.0808 229.877 18.0808C229.877 22.0159 229.877 25.8488 229.877 29.6167C233.395 29.6167 236.875 29.7744 240.332 29.5611C242.628 29.4194 244.495 28.1824 245.246 25.824C246.072 23.23 245.463 20.6029 243.137 19.1432ZM241.796 5.24892C240.676 4.58529 239.479 4.20002 238.164 4.19475C235.631 4.18459 233.097 4.1558 230.564 4.13995C230.331 4.13849 230.098 4.17453 229.879 4.19202C229.879 7.45831 229.879 10.6553 229.879 13.8466C233.004 13.8466 236.084 13.9265 239.156 13.8111C240.574 13.7578 241.848 13.0959 242.739 11.88C243.862 10.3495 243.991 6.94317 241.796 5.24892Z" fill="white"/>
<path d="M47.0274 4.2937C47.0334 3.53067 46.9981 2.85499 47.0539 2.1869C47.1702 0.792107 48.0507 0.000253178 49.376 0.0375465C50.6694 0.0739391 51.5441 0.965911 51.5514 2.35538C51.5712 6.11554 51.5586 9.87586 51.5588 13.6361C51.5588 13.9632 51.5588 14.2903 51.5588 14.6654C58.3072 14.6654 64.9556 14.6654 71.7075 14.6654C71.7075 14.3255 71.7075 14.0001 71.7075 13.6747C71.7075 9.945 71.7061 6.21531 71.7081 2.48562C71.709 0.986079 72.5835 0.021032 73.9163 0.0389315C75.297 0.0574742 76.1415 0.976514 76.142 2.49355C76.1454 12.1235 76.1453 21.7534 76.1422 31.3834C76.1417 32.9814 75.3582 33.8072 73.9819 33.876C72.6535 33.9423 71.6548 32.6211 71.6781 31.3693C71.7557 27.1861 71.7075 23.0005 71.7075 18.756C64.989 18.756 58.3212 18.756 51.5588 18.756C51.5588 19.1957 51.5588 19.5849 51.5588 19.9741C51.5588 23.7955 51.5747 27.617 51.5522 31.4383C51.5403 33.4486 49.7174 34.5584 48.1121 33.4955C47.6441 33.1857 47.3448 32.5317 47.1199 31.9742C46.9584 31.5737 47.0304 31.0715 47.0302 30.6146C47.0264 21.8712 47.0274 13.1279 47.0274 4.2937Z" fill="white"/>
<path d="M183.112 32.1375C182.82 33.3198 182.331 33.7468 181.221 33.8411C180.948 33.8644 180.672 33.8598 180.397 33.8599C173.06 33.8608 165.723 33.8519 158.386 33.8705C157.361 33.8731 156.514 33.6811 156.068 32.6421C155.623 31.6061 155.849 30.7337 156.553 29.8671C160.581 24.9067 164.575 19.919 168.591 14.9497C171.307 11.59 174.042 8.24632 176.764 4.89182C176.948 4.66535 177.094 4.4081 177.355 4.01975C176.869 4.01975 176.547 4.01975 176.226 4.01975C170.57 4.01975 164.915 4.02137 159.259 4.01649C158.833 4.01612 158.404 3.99526 157.982 3.93922C156.932 3.7997 156.319 3.11568 156.317 2.11939C156.315 1.02383 156.983 0.207403 158.009 0.0747151C158.311 0.0357436 158.619 0.0379351 158.924 0.037856C166.139 0.0360001 173.353 0.048279 180.568 0.0235079C181.639 0.0198293 182.483 0.296732 182.991 1.28271C183.52 2.31237 183.081 3.18735 182.457 3.97098C180.636 6.25691 178.782 8.5158 176.942 10.7868C173.648 14.8531 170.356 18.9211 167.062 22.9874C165.248 25.2263 163.432 27.4631 161.516 29.8257C161.959 29.847 162.274 29.8752 162.589 29.8753C168.428 29.8779 174.267 29.8755 180.105 29.881C180.5 29.8814 180.901 29.9028 181.288 29.972C182.505 30.1897 183.008 30.7788 183.112 32.1375Z" fill="white"/>
<path d="M206.868 15.7356C205.736 12.9461 204.636 10.2207 203.453 7.29401C202.891 8.65026 202.385 9.86042 201.888 11.0739C199.314 17.3487 196.741 23.6239 194.17 29.9C193.859 30.6592 193.558 31.4227 193.26 32.1873C192.705 33.6133 191.458 34.2236 190.119 33.7175C188.994 33.2918 188.51 31.965 189.052 30.6235C189.839 28.6788 190.674 26.7538 191.482 24.8179C193.919 18.9812 196.352 13.1428 198.789 7.30629C199.586 5.39786 200.372 3.48427 201.203 1.59092C201.601 0.686525 202.21 0.0247554 203.335 0.0268466C204.441 0.0289029 205.067 0.586544 205.473 1.55516C206.858 4.86061 208.273 8.1534 209.662 11.4572C211.18 15.0669 212.677 18.6854 214.191 22.2965C215.354 25.0689 216.542 27.8308 217.694 30.6075C218.25 31.9472 217.745 33.1978 216.496 33.7165C215.329 34.2014 214.08 33.6761 213.54 32.3579C212.104 28.8533 210.717 25.3284 209.31 21.8121C208.507 19.8074 207.702 17.8038 206.868 15.7356Z" fill="white"/>
<path d="M280.402 4.3782C276.753 9.99258 273.143 15.5525 269.553 21.1253C269.372 21.406 269.291 21.7983 269.289 22.1394C269.269 25.1958 269.28 28.2524 269.276 31.3089C269.274 32.9094 268.423 33.8795 267.054 33.8602C265.634 33.8402 264.811 32.9212 264.807 31.3205C264.8 28.3557 264.829 25.3905 264.784 22.4263C264.776 21.886 264.604 21.2773 264.315 20.823C260.766 15.2442 257.179 9.68899 253.606 4.1252C253.392 3.79256 253.193 3.44787 253.019 3.09323C252.508 2.05357 252.755 1.04859 253.652 0.448412C254.656 -0.223498 255.951 -0.147542 256.598 0.801868C258.073 2.96531 259.46 5.18943 260.863 7.40112C262.838 10.5138 264.794 13.6385 266.763 16.7544C266.871 16.9247 267.031 17.0621 267.202 17.2553C269.202 14.1092 271.164 11.0168 273.132 7.92783C274.514 5.75738 275.893 3.58448 277.294 1.42635C278.191 0.0453438 279.344 -0.34527 280.396 0.324732C281.475 1.01124 281.65 2.35119 280.836 3.71626C280.713 3.92375 280.576 4.12319 280.402 4.3782Z" fill="white"/>
<path d="M148.333 4.13641C145.198 4.13719 142.148 4.13719 139.013 4.13719C139.013 4.54872 139.013 4.87667 139.013 5.20462C139.013 13.7665 139.014 22.3283 139.01 30.8902C139.009 31.2859 139.007 31.6893 138.934 32.0757C138.711 33.2631 137.798 33.9318 136.555 33.8589C135.404 33.7914 134.584 32.9856 134.488 31.8196C134.471 31.607 134.485 31.3917 134.485 31.1777C134.485 22.5241 134.485 13.8705 134.485 5.21689C134.485 4.88742 134.485 4.55796 134.485 4.13735C132.645 4.13735 130.88 4.13737 129.115 4.13735C127.769 4.13733 126.424 4.15049 125.078 4.1333C123.856 4.11769 123.088 3.3895 123.05 2.25486C123.008 0.985081 123.724 0.142178 124.973 0.0577685C125.673 0.0104403 126.379 0.0380734 127.082 0.0379831C134.115 0.0370803 141.148 0.0358744 148.181 0.0390057C149.328 0.0395166 150.003 0.51698 150.314 1.51634C150.562 2.31161 150.24 3.32446 149.52 3.77029C149.199 3.96856 148.787 4.0184 148.333 4.13641Z" fill="white"/>
<path d="M111.669 24.1493C108.828 19.2602 106.023 14.4285 103.139 9.46232C102.907 9.80096 102.727 10.0299 102.582 10.2794C99.7593 15.14 96.9267 19.995 94.1368 24.8745C93.7258 25.5933 93.2914 25.9378 92.4265 25.8792C91.1901 25.7954 89.9438 25.8578 88.4883 25.8578C93.3893 17.4167 98.1933 9.1425 103.101 0.690411C109.65 11.9691 116.108 23.0894 122.635 34.3282C109.562 34.3282 96.6523 34.3282 83.5747 34.3282C84.3755 32.959 85.1046 31.6325 85.9319 30.3702C86.0844 30.1376 86.634 30.0853 87.0005 30.0845C95.9263 30.0655 104.852 30.0647 113.778 30.0606C114.142 30.0604 114.506 30.0606 115.087 30.0606C113.906 28.0178 112.805 26.1123 111.669 24.1493Z" fill="#86BB2D"/>
</svg>
